# xmcd
#
# Track frame offsets:
#	180
#	11741
#	17341
#	28711
#	40834
#	53902
#	68887
#	95477
#	110886
#	124569
#	137323
#	150904
#	163516
#	176961
#	190897
#	201872
#	215832
#	229066
#
# Disc length: 3205 seconds
#
# Revision: 2
# Processed by: cddbd v1.5.2PL0 Copyright (c) Steve Scherf et al.
# Submitted via: EZCDAudioConverter 7.1.0.1
#
DISCID=f30c8312
DTITLE=36 Masterpieces Of Blues 1927-1942 - BLUES - CD2 - 36 Masterpieces Of B
DTITLE=lues Music
DYEAR=1995
DGENRE=Blues
TTITLE0=Memphis Minnie and The Memphis Jug Band - Bumble Bee Blues
TTITLE1=Noah Lewis - New Minglewood Blues
TTITLE2=Sleepy John Estes - Someday Baby
TTITLE3=Charlie Pickett - Down The Highway
TTITLE4=Sonny Boy Williamson - Good Morning Little Schoolgirl
TTITLE5=Lonnie Johnson - Winnie The Wailer
TTITLE6=Walter Davis - Ashes In My Whiskey
TTITLE7=Blind Blues Darby - The Girl I Left Behind
TTITLE8=Peetie Wheatstraw - Peetie Wheatstraw Stomp
TTITLE9=Charlie Mc Coy - Baltimore Blues
TTITLE10=Tampa Red - Mean Mistreater Blues
TTITLE11=Big Bill Broonzy - New Shake'm On Down
TTITLE12=Jazz Gilum - Gillum's Windy Blues
TTITLE13=Big Joe Williams - Please Don't Go
TTITLE14=Sonny Boy Williamson - Love Me Baby
TTITLE15=Yank Rachell - Up North Blues
TTITLE16=Big Joe Turner - Blues On Central Avenue
TTITLE17=T-Bone Walker - Mean Old World
EXTD=
EXTT0=
EXTT1=
EXTT2=
EXTT3=
EXTT4=
EXTT5=
EXTT6=
EXTT7=
EXTT8=
EXTT9=
EXTT10=
EXTT11=
EXTT12=
EXTT13=
EXTT14=
EXTT15=
EXTT16=
EXTT17=
PLAYORDER=
